C:\Users\r0593348\3dpredictsim\Results\batch_windlass\Pog_s1_tmt_bCst_d05_k1500_WL30_ig24_pas_GRF.mot
nRows=27
nColumns=19

name C:\Users\r0593348\3dpredictsim\Results\batch_windlass\Pog_s1_tmt_bCst_d05_k1500_WL30_ig24_pas_GRF.mot
datacolumns 19
datarows 27
range 0.0000000000 0.2800999739
endheader
time 	ground_force_vx	ground_force_vy	ground_force_vz	ground_force_px	ground_force_py	ground_force_pz	1_ground_force_vx	1_ground_force_vy	1_ground_force_vz	1_ground_force_px	1_ground_force_py	1_ground_force_pz	ground_torque_x	ground_torque_y	ground_torque_z	1_ground_torque_x	1_ground_torque_y	1_ground_torque_z
        0.0000000000	      -81.3259792499	       57.6244252182	       19.6034132161	        0.1388329758	        0.0000000000	        0.0447562575	       89.9281102797	      462.3965079111	       -2.1101581163	       -0.3212995907	        0.0000000000	       -0.0352046765	        0.0000000000	        0.0000000000	        0.0000000000	        0.0000000000	        0.0000000000	        0.0000000000	
        0.0107730759	     -130.4540779611	      116.0744768408	       42.2850370521	        0.1506405242	        0.0000000000	        0.0426449314	       72.4947889671	      375.8779510957	       -7.5524444858	       -0.3164207489	        0.0000000000	       -0.0334126745	        0.0000000000	        0.0000000000	        0.0000000000	        0.0000000000	        0.0000000000	        0.0000000000	
        0.0215461518	     -106.6539053424	      230.5111590818	       64.0950960888	        0.1606170964	        0.0000000000	        0.0420577137	       42.1208521662	      279.8859721748	      -15.1539727780	       -0.3087270719	        0.0000000000	       -0.0300561839	        0.0000000000	        0.0000000000	        0.0000000000	        0.0000000000	        0.0000000000	        0.0000000000	
        0.0323192278	      -61.5263591765	      466.5653034355	       10.2028775110	        0.1721546396	        0.0000000000	        0.0434176367	       17.1312689212	      190.2647337542	      -14.9072016295	       -0.2965093738	        0.0000000000	       -0.0236829832	        0.0000000000	        0.0000000000	        0.0000000000	        0.0000000000	        0.0000000000	        0.0000000000	
        0.0430923037	      -71.8322556620	      683.3814679009	       -9.9125813036	        0.1792771890	        0.0000000000	        0.0450447879	        1.8879809595	      149.6207771146	      -13.6178834070	       -0.2913397278	        0.0000000000	       -0.0203675918	        0.0000000000	        0.0000000000	        0.0000000000	        0.0000000000	        0.0000000000	        0.0000000000	
        0.0538653796	      -92.5376538929	      809.7364585926	      -16.7696799746	        0.1848317461	        0.0000000000	        0.0460801517	       -4.4106127579	      115.2981636925	      -12.3149238966	       -0.2912496817	        0.0000000000	       -0.0203401269	        0.0000000000	        0.0000000000	        0.0000000000	        0.0000000000	        0.0000000000	        0.0000000000	
        0.0646384555	     -111.5610870634	      875.8523391506	      -17.0599989252	        0.1904596623	        0.0000000000	        0.0464169803	      -13.4151550964	       74.1186743977	       -9.7612436221	       -0.2915251704	        0.0000000000	       -0.0202679031	        0.0000000000	        0.0000000000	        0.0000000000	        0.0000000000	        0.0000000000	        0.0000000000	
        0.0754115314	     -112.7179517806	      903.3829937001	      -17.3383778347	        0.1969301201	        0.0000000000	        0.0462339137	      -11.5690056659	       26.2353907613	       -3.8783254841	       -0.2916965206	        0.0000000000	       -0.0199912460	        0.0000000000	        0.0000000000	        0.0000000000	        0.0000000000	        0.0000000000	        0.0000000000	
        0.0861846073	     -106.3731046285	      888.5831651675	      -16.4678732077	        0.2026094304	        0.0000000000	        0.0458290769	        0.2254498005	       -0.2224133344	        0.0015164299	        0.0000000000	        0.0000000000	        0.0000000000	        0.0000000000	        0.0000000000	        0.0000000000	        0.0000000000	        0.0000000000	        0.0000000000	
        0.0969576833	      -91.6260380151	      841.1448872412	      -16.5796109258	        0.2065814711	        0.0000000000	        0.0454779209	        0.0009269459	       -0.0007565852	       -0.0000473545	        0.0000000000	        0.0000000000	        0.0000000000	        0.0000000000	        0.0000000000	        0.0000000000	        0.0000000000	        0.0000000000	        0.0000000000	
        0.1077307592	      -76.7309206478	      785.5981452114	      -16.8134212872	        0.2098627315	        0.0000000000	        0.0452679227	        0.0003796710	       -0.0002697877	       -0.0000248039	        0.0000000000	        0.0000000000	        0.0000000000	        0.0000000000	        0.0000000000	        0.0000000000	        0.0000000000	        0.0000000000	        0.0000000000	
        0.1185038351	      -64.1926410100	      736.3544920098	      -17.0527096216	        0.2129747080	        0.0000000000	        0.0451661281	        0.0014953718	       -0.0009559907	       -0.0001085509	        0.0000000000	        0.0000000000	        0.0000000000	        0.0000000000	        0.0000000000	        0.0000000000	        0.0000000000	        0.0000000000	        0.0000000000	
        0.1292769110	      -53.2584034364	      696.0235274158	      -17.7146813485	        0.2161618655	        0.0000000000	        0.0451353266	        0.0136608451	       -0.0080377890	       -0.0010573896	        0.0000000000	        0.0000000000	        0.0000000000	        0.0000000000	        0.0000000000	        0.0000000000	        0.0000000000	        0.0000000000	        0.0000000000	
        0.1400499869	      -43.6913138320	      663.1172017069	      -18.2830428398	        0.2195720436	        0.0000000000	        0.0451566994	       -0.0535011680	        0.0294439880	        0.0043259855	        0.0000000000	        0.0000000000	        0.0000000000	        0.0000000000	        0.0000000000	        0.0000000000	        0.0000000000	        0.0000000000	        0.0000000000	
        0.1508230628	      -35.1673212060	      637.0067271867	      -18.9121318473	        0.2235498240	        0.0000000000	        0.0451949720	       -0.0410555083	        0.0213570296	        0.0034326074	        0.0000000000	        0.0000000000	        0.0000000000	        0.0000000000	        0.0000000000	        0.0000000000	        0.0000000000	        0.0000000000	        0.0000000000	
        0.1615961388	      -28.6921181125	      617.2289926136	      -19.6967849064	        0.2282360983	        0.0000000000	        0.0452060255	       -0.0259663003	        0.0128587451	        0.0022327375	        0.0000000000	        0.0000000000	        0.0000000000	        0.0000000000	        0.0000000000	        0.0000000000	        0.0000000000	        0.0000000000	        0.0000000000	
        0.1723692147	      -24.2350952489	      602.8793184047	      -20.3231607402	        0.2333788174	        0.0000000000	        0.0451690647	       -0.0194243495	        0.0092127835	        0.0017102088	        0.0000000000	        0.0000000000	        0.0000000000	        0.0000000000	        0.0000000000	        0.0000000000	        0.0000000000	        0.0000000000	        0.0000000000	
        0.1831422906	      -20.7015170568	      593.0444649603	      -20.6222384614	        0.2388085582	        0.0000000000	        0.0450827606	       -0.0185641957	        0.0084752492	        0.0016623437	        0.0000000000	        0.0000000000	        0.0000000000	        0.0000000000	        0.0000000000	        0.0000000000	        0.0000000000	        0.0000000000	        0.0000000000	
        0.1939153665	      -18.0523789740	      586.7427780345	      -20.6448195305	        0.2444747073	        0.0000000000	        0.0449443683	       -0.0226826754	        0.0100081592	        0.0020470689	        0.0000000000	        0.0000000000	        0.0000000000	        0.0000000000	        0.0000000000	        0.0000000000	        0.0000000000	        0.0000000000	        0.0000000000	
        0.2046884424	      -16.8357184404	      583.2755398700	      -20.3108524704	        0.2501707315	        0.0000000000	        0.0447642684	       -0.0339769904	        0.0145414919	        0.0030648854	        0.0000000000	        0.0000000000	        0.0000000000	        0.0000000000	        0.0000000000	        0.0000000000	        0.0000000000	        0.0000000000	        0.0000000000	
        0.2154615184	      -15.7128095240	      581.9337103347	      -19.8890875083	        0.2558238998	        0.0000000000	        0.0445533785	       -0.0585593737	        0.0243985396	        0.0052496863	        0.0000000000	        0.0000000000	        0.0000000000	        0.0000000000	        0.0000000000	        0.0000000000	        0.0000000000	        0.0000000000	        0.0000000000	
        0.2262345943	      -14.3692611494	      581.3001570157	      -19.4912429022	        0.2614385059	        0.0000000000	        0.0443141250	       -0.1081485015	        0.0440251108	        0.0095945599	        0.0000000000	        0.0000000000	        0.0000000000	        0.0000000000	        0.0000000000	        0.0000000000	        0.0000000000	        0.0000000000	        0.0000000000	
        0.2370076702	      -12.8201734608	      580.0733974426	      -19.3518252362	        0.2668976718	        0.0000000000	        0.0440587321	       -0.2002714435	        0.0799340845	        0.0175366545	        0.0000000000	        0.0000000000	        0.0000000000	        0.0000000000	        0.0000000000	        0.0000000000	        0.0000000000	        0.0000000000	        0.0000000000	
        0.2477807461	      -10.8623543275	      577.6776800460	      -19.2905098887	        0.2722114459	        0.0000000000	        0.0437956092	       -0.3526464271	        0.1384758910	        0.0304477332	        0.0000000000	        0.0000000000	        0.0000000000	        0.0000000000	        0.0000000000	        0.0000000000	        0.0000000000	        0.0000000000	        0.0000000000	
        0.2585538220	       -8.7428473316	      574.1744255184	      -19.2361754056	        0.2774335297	        0.0000000000	        0.0435214943	       -0.5670428925	        0.2198128682	        0.0482156190	        0.0000000000	        0.0000000000	        0.0000000000	        0.0000000000	        0.0000000000	        0.0000000000	        0.0000000000	        0.0000000000	        0.0000000000	
        0.2693268979	       -6.4344595057	      569.2366709797	      -19.0239334570	        0.2825422524	        0.0000000000	        0.0432396981	       -0.8177450614	        0.3139179858	        0.0682427149	        0.0000000000	        0.0000000000	        0.0000000000	        0.0000000000	        0.0000000000	        0.0000000000	        0.0000000000	        0.0000000000	        0.0000000000	
        0.2800999739	       -3.7428930312	      563.4132332308	      -18.3959515015	        0.2876341739	        0.0000000000	        0.0429439365	       -1.0594204556	        0.4037699799	        0.0861913737	        0.0000000000	        0.0000000000	        0.0000000000	        0.0000000000	        0.0000000000	        0.0000000000	        0.0000000000	        0.0000000000	        0.0000000000	
